# xmcd
#
# Track frame offsets:
#	150
#	17562
#	29036
#	45946
#	59170
#	78051
#	97005
#	113803
#	129243
#	141601
#	153901
#
# Disc length: 2205 seconds
# Revision: 1
# Processed by: cddbd v1.5.2PL0 Copyright (c) Steve Scherf et al.
# Submitted via: dBpowerAMP V12.0
#
DISCID=8e089b0b
DTITLE=Barwick and Siegfried - The Trestle
DYEAR=2015
DGENRE=Country
TTITLE0=The Trestle
TTITLE1=Dig a Hole in the Meadow
TTITLE2=River Driving
TTITLE3=Ages and Ages Ago
TTITLE4=The L&N Don't Stop Here Anymore
TTITLE5=Wait a Minute
TTITLE6=Diggin' Dusty Diamonds
TTITLE7=The Bird That I Held in My Hand
TTITLE8=California Bound
TTITLE9=Walk On, Boy
TTITLE10=Over the Ocean
EXTD=
EXTT0=
EXTT1=
EXTT2=
EXTT3=
EXTT4=
EXTT5=
EXTT6=
EXTT7=
EXTT8=
EXTT9=
EXTT10=
PLAYORDER=
